<svg width="24" height="65" viewBox="0 0 24 65" fill="none" xmlns="http://www.w3.org/2000/svg">
<path d="M0.665907 31.6666V43.3332C0.665907 44.1482 1.2559 44.8432 2.05757 44.9766L10.6659 46.4116V58.3332C10.0342 58.3332 9.45755 58.6899 9.17422 59.2549L7.96922 61.6665H5.02923L4.3609 60.3282L5.17756 59.5115L2.8209 57.1549L1.15424 58.8215C0.647572 59.3282 0.520906 60.1032 0.840906 60.7449L2.50757 64.0782C2.7909 64.6432 3.36757 64.9999 3.99923 64.9999H8.99922C9.63089 64.9999 10.2076 64.6432 10.4909 64.0782L11.6959 61.6665H12.9692L14.1759 64.0782C14.4575 64.6432 15.0342 64.9999 15.6659 64.9999H20.6659C21.2975 64.9999 21.8742 64.6432 22.1575 64.0782L23.8242 60.7449C24.1442 60.1032 24.0192 59.3282 23.5109 58.8215L21.8442 57.1549L19.4875 59.5115L20.3042 60.3282L19.6359 61.6665H16.6959L15.4892 59.2549C15.2075 58.6899 14.6309 58.3332 13.9992 58.3332V46.4116L22.6075 44.9766C23.4092 44.8432 23.9992 44.1482 23.9992 43.3332V31.6666C23.9992 31.4083 23.9392 31.1516 23.8242 30.9216L19.1325 21.54L22.2475 12.195C22.5392 11.3216 22.0675 10.3783 21.1942 10.0866L17.3325 8.79831V6.66665C17.3325 5.74665 16.5859 4.99999 15.6659 4.99999H13.9992V0H10.6659V4.99999H8.99922C8.07922 4.99999 7.33256 5.74665 7.33256 6.66665V8.79831L3.47256 10.085C2.59923 10.3766 2.12757 11.32 2.41923 12.1933L5.53423 21.5383L0.842571 30.9199C0.725905 31.1516 0.665907 31.4083 0.665907 31.6666ZM3.99923 32.0599L8.82422 22.4116C9.02256 22.0166 9.05422 21.5583 8.91422 21.1383L6.10756 12.72L9.52589 11.58C10.2076 11.3533 10.6659 10.7183 10.6659 9.99998V8.33331H13.9992V9.99998C13.9992 10.7183 14.4575 11.3533 15.1392 11.5816L18.5575 12.7216L15.7509 21.14C15.6109 21.56 15.6442 22.0166 15.8409 22.4133L20.6659 32.0599V41.9216L12.3325 43.3099L3.99923 41.9216V32.0599Z" fill="white"/>
</svg>
