<svg width="47" height="80" viewBox="0 0 47 80" fill="none" xmlns="http://www.w3.org/2000/svg">
<path d="M1.66617 49.9999H9.99949V78.3332C9.99949 79.2532 10.7462 79.9998 11.6662 79.9998H34.9994C35.9194 79.9998 36.6661 79.2532 36.6661 78.3332V49.9999H44.9994C45.9194 49.9999 46.6661 49.2532 46.6661 48.3332V31.6666C46.6661 25.2333 41.4328 20 34.9994 20H31.4828C33.6494 17.88 34.9994 14.93 34.9994 11.6666C34.9994 5.23332 29.7661 0 23.3328 0C16.8995 0 11.6662 5.23332 11.6662 11.6666C11.6662 14.93 13.0161 17.88 15.1828 20H11.6662C5.23283 20 -0.000488281 25.2333 -0.000488281 31.6666V48.3332C-0.000488281 49.2532 0.746177 49.9999 1.66617 49.9999ZM14.9995 11.6666C14.9995 7.07165 18.7378 3.33333 23.3328 3.33333C27.9278 3.33333 31.6661 7.07165 31.6661 11.6666C31.6661 16.2616 27.9278 20 23.3328 20C18.7378 20 14.9995 16.2616 14.9995 11.6666ZM3.33284 31.6666C3.33284 27.0716 7.07116 23.3333 11.6662 23.3333H34.9994C39.5944 23.3333 43.3328 27.0716 43.3328 31.6666V46.6666H36.6661V31.6666H33.3328V48.3332V76.6665H24.9995V51.6666H21.6661V76.6665H13.3328V48.3332V31.6666H9.99949V46.6666H3.33284V31.6666Z" fill="white"/>
</svg>
